<svg id="Astronaut" xmlns="http://www.w3.org/2000/svg" viewBox="0 0 282.95 451.96">
  <defs>
    <style>
      .cls-1 {
        fill: #263238;
      }

      .cls-2 {
        fill: #171b3c;
      }

      .cls-3 {
        opacity: 0.3;
      }

      .cls-4 {
        fill: #e0e0e0;
      }

      .cls-5 {
        fill: #455a64;
      }

      .cls-6 {
        fill: #fff;
      }
    </style>
  </defs>
  <title>astronaut-1</title>
  <g>
    <g>
      <path class="cls-1" d="M219.83,73.54a5.17,5.17,0,0,1,2.79.4c.08,0,.67.31.29.12.24.12.48.26.71.4l.66.47c.5.39-.19-.25.24.22a5.81,5.81,0,0,1,1.4,2.11,5.54,5.54,0,0,1,.31,2.46c0,.23,0,.45-.07.68.06-.45-.1.41-.13.49s-.13.43-.21.64-.29.63-.11.27a6.66,6.66,0,0,1-.86,1.3c.28-.32-.14.14-.2.2l-.67.58c-.34.29.19-.08-.24.17-.19.11-.37.22-.57.32a6.33,6.33,0,0,1-.8.36c.38-.14-.27.08-.29.08a6.74,6.74,0,0,1-.75.17c-.09,0-.81.08-.39.06A8.83,8.83,0,0,1,219.4,85a2.29,2.29,0,0,0-.18,4.58,10.33,10.33,0,0,0,7.83-18.24A10.3,10.3,0,0,0,220,69a2.35,2.35,0,0,0-2.38,2.2,2.31,2.31,0,0,0,2.2,2.39Z"/>
      <rect class="cls-2" x="93.02" y="43.77" width="126.28" height="166.67" rx="19.38" ry="19.38" transform="translate(-1.55 1.93) rotate(-0.7)"/>
      <path class="cls-1" d="M103.67,111.68s0-.17,0-.51l0-1.51c0-1.35,0-3.3,0-5.8,0-5.06,0-12.34-.08-21.34,0-4.5,0-9.44,0-14.73a7.63,7.63,0,0,1,.92-4,7.38,7.38,0,0,1,3-3,7.13,7.13,0,0,1,2.07-.7,11.65,11.65,0,0,1,2.2-.12h4.41l38.75,0,38.76,0H198a11.59,11.59,0,0,1,2.19.12,7.62,7.62,0,0,1,2.08.7,7.41,7.41,0,0,1,3,3,7.63,7.63,0,0,1,.92,4c0,5.3,0,10.23,0,14.74,0,9-.06,16.27-.08,21.33,0,2.5,0,4.45,0,5.8l0,1.51c0,.34,0,.51,0,.51s0-.17,0-.51,0-.86,0-1.51c0-1.35,0-3.3,0-5.8,0-5.06,0-12.34-.08-21.33,0-4.51,0-9.44,0-14.74a7.27,7.27,0,0,0-.88-3.78,7,7,0,0,0-2.86-2.76,6.69,6.69,0,0,0-2-.65,10.47,10.47,0,0,0-2.11-.11h-4.41l-38.76,0-38.75,0h-4.41a10.53,10.53,0,0,0-2.12.11,6.63,6.63,0,0,0-1.94.65A7,7,0,0,0,104.76,64a7.27,7.27,0,0,0-.88,3.78c0,5.29,0,10.23,0,14.73,0,9-.06,16.28-.08,21.34,0,2.5,0,4.45,0,5.8l0,1.51C103.68,111.51,103.67,111.68,103.67,111.68Z"/>
      <path class="cls-3" d="M214.71,205.23c.29-.32-5-60.88-5-60.88L196.76,141l4.18,57.76L208,209.07A15,15,0,0,0,214.71,205.23Z"/>
      <circle class="cls-1" cx="195.32" cy="71.26" r="2.33"/>
      <circle class="cls-1" cx="195.32" cy="79.29" r="2.33"/>
    </g>
    <g>
      <path class="cls-4" d="M118.18,86s-13,3.72-16,5.48-30.69,29.07-31.67,29.86c-.69.55-10.82-10.62-16.67-18.07L46.32,99l-17.4,13.41.38,8.91c6.43,10.21,19.37,29.9,25.4,34.75,8,6.48,18.82,6.87,27.35,3.32,5-2.11,26.18-18.73,26.18-18.73l11.18-4.12Z"/>
      <path class="cls-1" d="M93.52,122.52a21.8,21.8,0,0,1,1.24,3c.76,2,1.72,4.55,2.77,7.35s2,5.3,2.82,7.31a21.39,21.39,0,0,1,1.13,3.05,18,18,0,0,1-1.47-2.9c-.82-1.84-1.88-4.41-3-7.28s-2-5.49-2.62-7.4A18.16,18.16,0,0,1,93.52,122.52Z"/>
      <path class="cls-1" d="M97.84,148.69a11.33,11.33,0,0,1-1.13-1.1c-.71-.72-1.68-1.81-2.83-3.2a69.16,69.16,0,0,1-13-24.9c-.49-1.74-.83-3.16-1-4.16a7.84,7.84,0,0,1-.25-1.55,10.13,10.13,0,0,1,.44,1.51c.25,1,.64,2.38,1.17,4.1a77.31,77.31,0,0,0,12.92,24.77c1.11,1.41,2,2.54,2.69,3.3A7.54,7.54,0,0,1,97.84,148.69Z"/>
      <path class="cls-1" d="M69.53,129.76a18.18,18.18,0,0,1,.12-4.31,18.5,18.5,0,0,1,.63-4.27,17.25,17.25,0,0,1-.11,4.31A18.17,18.17,0,0,1,69.53,129.76Z"/>
      <path class="cls-2" d="M72,120c-.66.57,2.37,20.83,17.48,34.78L93,152.21s-17.07-16.05-18-35.2Z"/>
      <path class="cls-1" d="M53.89,103.24c.08.12-5.35,4.26-12.14,9.25s-12.36,9-12.45,8.84,5.35-4.26,12.14-9.25S53.8,103.13,53.89,103.24Z"/>
      <path class="cls-1" d="M35.16,130.16a5,5,0,0,1,.69-.8l2-2.08c1.72-1.75,4.14-4.16,6.88-6.86l0,.35-1.07-1.31c-.51-.64-1-1.26-1.51-1.86l.35.05c-3,2.1-5.68,3.94-7.61,5.24l-2.28,1.5a4.36,4.36,0,0,1-.86.5,3.65,3.65,0,0,1,.76-.65l2.19-1.63c1.87-1.37,4.5-3.26,7.51-5.38l.19-.14.15.19,1.52,1.85,1.06,1.31.15.19-.17.16c-2.75,2.69-5.21,5-7,6.74l-2.12,2C35.47,130,35.19,130.19,35.16,130.16Z"/>
      <polygon class="cls-2" points="29.22 119.38 52.05 102.21 46.32 99.01 28.92 112.42 29.22 119.38"/>
      <g>
        <g>
          <path class="cls-1" d="M44.9,78.55c-.45-.57-.93-1.12-1.41-1.66a11,11,0,0,0-1.63,2.16,32.89,32.89,0,0,0-3.36,7.19s-6.08-9.54-7.24-11.72A59.67,59.67,0,0,0,27.34,68a19.44,19.44,0,0,0-8.54,1c2.6,4.22,7.55,11.56,6.53,12.57-.84.83-5.69-6.3-10-10.84l-.53.35a17.94,17.94,0,0,0-4.22,4.34c3,3.39,6.52,7.32,6.41,8.13s-4-2.69-8-5.56a26.42,26.42,0,0,0-1.76,4.18c-.29.88-.53,1.78-.75,2.69,3.88,3.22,9.62,6.13,6.84,6-1.7-.07-4.77-1.56-7.52-2.7-.31,1.89-.54,3.8-.75,5.71,3.38,2.08,7.21,3.2,8.52,5.06,1.42,2,4.88,8.6,9.29,11s6.06,2.56,6.06,2.56l17.14-11.85s1.27-7.5,1.61-11.5a28.12,28.12,0,0,1,1.72-6.67C47.5,81.9,46.15,80.12,44.9,78.55Z"/>
          <path class="cls-5" d="M9,77.91c-3.54-2.59-7.08-4.76-7.83-3.21-1.59,3.28,0,4,3.14,7.94a15.31,15.31,0,0,0,2.18,2.14c.22-.91.46-1.81.75-2.69A26.42,26.42,0,0,1,9,77.91Z"/>
          <path class="cls-5" d="M27.34,68c-2.8-4-6.57-7.8-9.81-5.58,0,0-1.7,1.42.46,5.17.22.4.51.86.81,1.36A19.44,19.44,0,0,1,27.34,68Z"/>
          <path class="cls-5" d="M.26,87.56c-.83,2.72.28,3.17,3.86,5.65.3.21.62.41.93.6.21-1.91.44-3.82.75-5.71C3.08,87,.68,86.21.26,87.56Z"/>
          <path class="cls-5" d="M49.39,82.4c.76-2.2,1.3-4.06.5-5.58-1.23-2.32-4-2.4-6.4.07.48.54,1,1.09,1.41,1.66C46.15,80.12,47.5,81.9,49.39,82.4Z"/>
          <path class="cls-5" d="M14.77,71l.53-.35A14.17,14.17,0,0,0,11,67.23c-4.59-1.76-5.77,1.3-4.55,3.28a61.78,61.78,0,0,0,4.1,4.83A17.94,17.94,0,0,1,14.77,71Z"/>
        </g>
        <path class="cls-5" d="M32.16,101.91s-.2-.2-.41-.66a7.53,7.53,0,0,1-.59-2,8.47,8.47,0,0,1,.11-3.14A8.22,8.22,0,0,1,33,92.65a8.6,8.6,0,0,1,4.93-2.91l-.16.19a23.78,23.78,0,0,1,.54-4,27,27,0,0,1-.12,4v.16l-.16,0A8.55,8.55,0,0,0,33.38,93a8.38,8.38,0,0,0-1.86,6.2A18.4,18.4,0,0,0,32.16,101.91Z"/>
        <path class="cls-5" d="M28.65,82.72c0,.1-1,.34-2.67,1a19.62,19.62,0,0,0-9.78,9.12c-.79,1.57-1.11,2.62-1.2,2.59a2.36,2.36,0,0,1,.15-.76,11.94,11.94,0,0,1,.72-2,17.89,17.89,0,0,1,10-9.3,11.67,11.67,0,0,1,2-.58A2.34,2.34,0,0,1,28.65,82.72Z"/>
      </g>
    </g>
    <g>
      <path class="cls-1" d="M187.64,54.48c-.14,0-.26-4.81-.26-10.75S187.5,33,187.64,33s.26,4.82.26,10.76S187.79,54.48,187.64,54.48Z"/>
      <g>
        <path class="cls-4" d="M113.38,44.63S110.74,0,151.13,0c42.05,0,40,46.55,40,50.16,0,0,3,34-37.5,34.73C111.08,85.67,113.38,44.63,113.38,44.63Z"/>
        <path class="cls-1" d="M116.26,43.23S112.69,10,151.47,10c40.34,0,36.77,34.77,36.77,37.57,0,0,1.56,25.79-36,26.54S116.26,43.23,116.26,43.23Z"/>
        <polygon class="cls-4" points="188.27 82.73 182.8 73.68 123.78 74.08 120.15 84.9 113.64 88.85 154.39 95.38 195.77 88.98 188.27 82.73"/>
        <rect class="cls-4" x="189.58" y="22.66" width="12.49" height="34.05" rx="6.03" ry="6.03"/>
        <path class="cls-1" d="M188.21,41a1.4,1.4,0,0,1,0-.3c0-.23,0-.53-.08-.9-.09-.79-.09-2-.31-3.44-.09-.75-.2-1.57-.31-2.48L186.91,31c-.23-1-.53-2.13-.84-3.3l-.59-1.76c-.1-.3-.2-.61-.31-.92s-.25-.6-.38-.91A32.1,32.1,0,0,0,173.42,9.51a39.4,39.4,0,0,0-21.59-6.79c-.45,0-.91,0-1.32,0h0a24.93,24.93,0,0,0-5.85.58,38.41,38.41,0,0,0-5.52,1.54,36.74,36.74,0,0,0-9.54,5.06A31.53,31.53,0,0,0,118.78,24.4a43,43,0,0,0-2.44,12.07c-.12,1.46-.09,2.59-.12,3.36,0,.36,0,.65,0,.87a1.16,1.16,0,0,1,0,.3,1.11,1.11,0,0,1,0-.29c0-.23,0-.52,0-.88,0-.77-.07-1.91,0-3.37a41.51,41.51,0,0,1,2.3-12.19A31.65,31.65,0,0,1,129.28,9.53a37,37,0,0,1,9.66-5.16,39,39,0,0,1,5.59-1.57,25.75,25.75,0,0,1,6-.59h0c.44,0,.9,0,1.36,0A39.69,39.69,0,0,1,173.7,9.12a31,31,0,0,1,7.21,7.09,32.89,32.89,0,0,1,4.22,7.73c.13.31.26.62.38.93l.3.92.58,1.79c.3,1.18.58,2.28.81,3.33s.36,2,.51,2.94.19,1.74.28,2.49c.18,1.49.15,2.67.2,3.46,0,.37,0,.66,0,.9A1.36,1.36,0,0,1,188.21,41Z"/>
        <path class="cls-5" d="M123.14,25.48c-4.4,7.41-5.1,16.62-3.25,25,9,1,18.18-3.45,24-10.44s8.39-18,8.32-27.11C136.69,12.91,127.54,18.07,123.14,25.48Z"/>
        <path class="cls-5" d="M159.71,13.69c7.53,10.76,4.69,30.76,4.69,30.76h7c3-17.07-2.75-29.09-2.75-29.09h0Z"/>
        <path class="cls-5" d="M174.08,39.68c.55,0,.59,7.21-1.13,11.78h4.58c.64,0,2.33-7,1.59-11.78Z"/>
        <path class="cls-1" d="M201.68,32.42a34.43,34.43,0,0,1-6,.26,34.43,34.43,0,0,1-6-.26,35.64,35.64,0,0,1,6-.26A35.64,35.64,0,0,1,201.68,32.42Z"/>
        <path class="cls-1" d="M198.2,39.68a2.38,2.38,0,1,1-2.37-2.37A2.38,2.38,0,0,1,198.2,39.68Z"/>
        <path class="cls-1" d="M198.2,48.12a2.38,2.38,0,1,1-2.37-2.38A2.37,2.37,0,0,1,198.2,48.12Z"/>
        <rect class="cls-4" x="102.46" y="22.66" width="12.49" height="34.05" rx="6.03" ry="6.03"/>
        <path class="cls-1" d="M114.56,32.42a34.43,34.43,0,0,1-6,.26,34.5,34.5,0,0,1-6-.26,35.71,35.71,0,0,1,6-.26A35.64,35.64,0,0,1,114.56,32.42Z"/>
        <path class="cls-1" d="M111.08,39.68a2.38,2.38,0,1,1-2.38-2.37A2.39,2.39,0,0,1,111.08,39.68Z"/>
        <path class="cls-1" d="M111.08,48.12a2.38,2.38,0,1,1-2.38-2.38A2.38,2.38,0,0,1,111.08,48.12Z"/>
        <path class="cls-1" d="M183.05,74.08a3.85,3.85,0,0,1-.53.37c-.35.23-.87.57-1.56,1a66.44,66.44,0,0,1-6,3.16,57.15,57.15,0,0,1-9.42,3.48,44.85,44.85,0,0,1-12.19,1.59,56.35,56.35,0,0,1-21.71-4.73,50.8,50.8,0,0,1-6-3.11c-.69-.4-1.2-.76-1.55-1a2.49,2.49,0,0,1-.52-.38,3.71,3.71,0,0,1,.57.29c.37.2.9.53,1.6.91a62.62,62.62,0,0,0,6.05,2.94,58.25,58.25,0,0,0,21.58,4.55,45.74,45.74,0,0,0,12.06-1.54,60.79,60.79,0,0,0,9.39-3.34c2.59-1.17,4.63-2.24,6-3l1.61-.88A3.26,3.26,0,0,1,183.05,74.08Z"/>
        <path class="cls-1" d="M188.32,82.81s-.17.2-.54.52-.93.79-1.65,1.38a61.75,61.75,0,0,1-6.44,4.64,36.53,36.53,0,0,1-10.86,4.51,59.21,59.21,0,0,1-14.32,1.55,58.47,58.47,0,0,1-7.46-.47,46.84,46.84,0,0,1-6.81-1.42,56.86,56.86,0,0,1-10.93-4.35,63.25,63.25,0,0,1-6.81-4.06c-.78-.52-1.36-1-1.76-1.25a4.5,4.5,0,0,1-.59-.46,3,3,0,0,1,.65.38c.42.26,1,.67,1.81,1.16a78.78,78.78,0,0,0,6.86,3.91,59.33,59.33,0,0,0,10.9,4.21,48.81,48.81,0,0,0,6.75,1.38,61,61,0,0,0,7.4.45,59.85,59.85,0,0,0,14.2-1.5A36.71,36.71,0,0,0,179.5,89a73.7,73.7,0,0,0,6.5-4.47l1.71-1.31A4.94,4.94,0,0,1,188.32,82.81Z"/>
        <g class="cls-3">
          <path d="M124.44,75.48a36.51,36.51,0,0,0,56.77-.34,54.26,54.26,0,0,1-56,.67"/>
        </g>
      </g>
    </g>
    <g>
      <path class="cls-5" d="M271.61,224.24a39.74,39.74,0,0,1-5.74-2.16c-1.35-.58-2.72-1.12-4.1-1.63-1,2.59-2.23,5.76.33,7.09,3.5,1.81,5.78,2.53,10.63-.2a19.68,19.68,0,0,0,4-3A10.74,10.74,0,0,1,271.61,224.24Z"/>
      <path class="cls-5" d="M257.86,219.12c-2.71-.87-5.47-1.6-8.25-2.2.15,1.45.26,2.51.33,2.9.32,2.14,1.44,5.35,4.24,5.49S258,223.21,257.86,219.12Z"/>
    </g>
    <g>
      <polygon class="cls-4" points="109.91 199.93 101.29 140.46 111.66 89.41 118.94 89.41 186.3 83.28 208.11 91.89 206.93 144.18 208.02 189.8 160 207.06 109.91 199.93"/>
      <path class="cls-1" d="M107.94,186.3s0-.07-.07-.23l-.12-.68-.45-2.64c-.37-2.34-.9-5.64-1.54-9.71-1.27-8.24-3-19.56-4.92-32.06-1-6.25-2-12.21-2.62-17.68a109,109,0,0,1-.78-14.58,67.06,67.06,0,0,1,.86-9.8c.16-1.15.39-2,.51-2.63l.15-.68a1,1,0,0,1,.07-.23.65.65,0,0,1,0,.24c0,.19-.07.41-.11.69-.08.61-.28,1.49-.41,2.64a75,75,0,0,0-.69,9.78,113.33,113.33,0,0,0,.88,14.52c.62,5.45,1.62,11.39,2.67,17.65,1.92,12.52,3.57,23.87,4.76,32.09.58,4.07,1,7.39,1.38,9.73.15,1.12.26,2,.35,2.66,0,.27.06.5.08.69S107.94,186.3,107.94,186.3Z"/>
      <g class="cls-3">
        <path d="M194.68,182.73a15.62,15.62,0,0,1-17.52,8.67c-4.52-1-8.34-3.93-12-6.78L168.8,181l14.44,2.33,8.23-3.68Z"/>
      </g>
      <path class="cls-1" d="M208.44,194.74a.81.81,0,0,1-.24.06l-.72.13-2.75.46c-2.4.4-5.88.91-10.18,1.49-8.6,1.17-20.53,2.52-33.74,3.49s-25.22,1.35-33.9,1.43c-4.35,0-7.86,0-10.29,0l-2.79-.05-.73,0-.25,0,.25,0,.73,0,2.79,0c2.43,0,5.94-.07,10.28-.17,8.68-.18,20.66-.62,33.87-1.58s25.12-2.26,33.73-3.33c4.31-.54,7.79-1,10.2-1.33l2.77-.36.72-.08A.69.69,0,0,1,208.44,194.74Z"/>
      <g>
        <path class="cls-2" d="M207.17,153.49c-33.17-.84-73.1.12-103.31,1.27l1.37,8.22,102.08-2.75Z"/>
        <path class="cls-1" d="M183.28,149.82a4.92,4.92,0,0,0,1.93-.52,4.16,4.16,0,0,0,1.71-1.67,4,4,0,0,0,.5-1.44,12.84,12.84,0,0,0,0-1.78c0-5.07-.05-12.38-.08-21.4,0-2.26,0-4.63,0-7.09a4.07,4.07,0,0,0-3.17-3.92,8.61,8.61,0,0,0-1.92-.1l-17,0-38.87,0a4,4,0,0,0-3.76,2.56,6.18,6.18,0,0,0-.27,2.41v2.53c0,3.36,0,6.67,0,9.92v9.57c0,1.57,0,3.11,0,4.64,0,.76,0,1.55,0,2.27a4,4,0,0,0,.69,2,4.11,4.11,0,0,0,3.61,1.76h12.55l14.78,0,21.4.08,5.82.05,1.52,0,.51,0s-.17,0-.51,0l-1.52,0-5.82,0L154,150l-14.78,0H126.7a4.55,4.55,0,0,1-4.79-4.18c0-.79,0-1.52,0-2.3v-4.64c0-3.12,0-6.32,0-9.57V116.92a6.54,6.54,0,0,1,.31-2.6,4.58,4.58,0,0,1,4.24-2.9l38.87,0,17,0a8.59,8.59,0,0,1,2,.12,4.49,4.49,0,0,1,3.48,4.32c0,2.47,0,4.84,0,7.1,0,9-.06,16.33-.08,21.4a15,15,0,0,1-.07,1.8,4.52,4.52,0,0,1-.54,1.5,4.28,4.28,0,0,1-1.8,1.68,4.09,4.09,0,0,1-1.46.42A2.92,2.92,0,0,1,183.28,149.82Z"/>
        <path class="cls-1" d="M122.93,111.64c.44-7-7.45-11.37-12.09-15.07-2.71-2.15-5-4.21-6.32-7.32-.84-2-1.59-4.6-.7-6.75a6.11,6.11,0,0,1,4-3.33,11.21,11.21,0,0,1,5.75.08,21,21,0,0,1,6.19,2.2c2.78,1.62,5.3-2.7,2.52-4.32A24.83,24.83,0,0,0,116,74.68a21.11,21.11,0,0,0-6.7-.83c-5.41.42-10.16,4.13-10.75,9.71-.5,4.7,1.83,9.76,5,13.14,2.61,2.79,5.91,5,8.83,7.29a26.32,26.32,0,0,1,4.32,4.05c-.27-.35.22.3.22.29.13.21.27.41.39.62s.5,1,.36.67a6.76,6.76,0,0,1,.3,1.09c-.09-.49,0,0,0,.12s0,.54,0,.81c-.21,3.21,4.79,3.2,5,0Z"/>
        <polygon class="cls-5" points="114.2 108.69 126.66 108.69 126.53 120.08 114.75 120.08 114.2 108.69"/>
        <circle class="cls-1" cx="141.02" cy="177.29" r="7.44" transform="translate(-56.91 67.09) rotate(-22.39)"/>
        <circle class="cls-1" cx="165.84" cy="177.29" r="7.44" transform="translate(-55.03 76.55) rotate(-22.39)"/>
        <circle class="cls-1" cx="192.17" cy="177.29" r="7.44" transform="translate(-56.9 97.75) rotate(-24.98)"/>
        <g>
          <path class="cls-4" d="M162,180c8.2,11.22,24.67,12.9,33.66,1.45,3.9-5-3.07-12-7-7-4.61,5.89-13.28,7.12-18.07.56-3.73-5.11-12.34-.16-8.57,5Z"/>
          <path class="cls-1" d="M162,180l-.14-.19-.37-.59a5.23,5.23,0,0,1-.41-1.05,3.87,3.87,0,0,1,0-1.56,4.76,4.76,0,0,1,2.61-3.23,6.08,6.08,0,0,1,2.57-.69,5.53,5.53,0,0,1,2.9.74,10.59,10.59,0,0,1,2.31,2.32,14.79,14.79,0,0,0,1.2,1.17,11.16,11.16,0,0,0,1.45,1,10,10,0,0,0,7.31,1,12.67,12.67,0,0,0,6.91-4.45c.24-.27.53-.56.8-.84a7,7,0,0,1,1-.68,4,4,0,0,1,2.37-.35,5.81,5.81,0,0,1,4.26,7.49,12.28,12.28,0,0,1-2.75,3.68,20.25,20.25,0,0,1-7.26,4.57,19.4,19.4,0,0,1-7.68,1.17,21,21,0,0,1-6.62-1.35,21.58,21.58,0,0,1-8.14-5.33,15.49,15.49,0,0,1-1.73-2l-.42-.55A2.07,2.07,0,0,1,162,180s.07,0,.17.16l.46.52a20,20,0,0,0,1.79,1.94,21.87,21.87,0,0,0,8.12,5.12A20.81,20.81,0,0,0,179,189a19.19,19.19,0,0,0,7.49-1.19,19.84,19.84,0,0,0,7.07-4.48,12.21,12.21,0,0,0,2.62-3.49,5.3,5.3,0,0,0-3.85-6.81,3.47,3.47,0,0,0-2.06.3,7.34,7.34,0,0,0-.86.6c-.25.27-.49.5-.74.78a13.14,13.14,0,0,1-7.2,4.6,10.4,10.4,0,0,1-7.63-1.05,12.34,12.34,0,0,1-1.5-1,14.51,14.51,0,0,1-1.24-1.24,10.6,10.6,0,0,0-2.2-2.27,5.26,5.26,0,0,0-2.7-.72,5.87,5.87,0,0,0-2.45.62,4.56,4.56,0,0,0-2.54,3,3.94,3.94,0,0,0,0,1.48,6.11,6.11,0,0,0,.35,1l.33.6C161.93,179.91,162,180,162,180Z"/>
        </g>
        <g>
          <path class="cls-1" d="M134.14,138.62a1.84,1.84,0,1,1-1.84-1.84A1.85,1.85,0,0,1,134.14,138.62Z"/>
          <path class="cls-1" d="M140.43,138.62a1.84,1.84,0,1,1-1.84-1.84A1.84,1.84,0,0,1,140.43,138.62Z"/>
          <path class="cls-1" d="M146.51,138.62a1.84,1.84,0,1,1-1.84-1.84A1.84,1.84,0,0,1,146.51,138.62Z"/>
          <path class="cls-1" d="M152.59,138.62a1.84,1.84,0,1,1-1.84-1.84A1.84,1.84,0,0,1,152.59,138.62Z"/>
        </g>
        <g>
          <path class="cls-6" d="M149.89,126.94H133.16a2.2,2.2,0,0,1-2.2-2.21h0a2.2,2.2,0,0,1,2.2-2.21h16.73a2.2,2.2,0,0,1,2.2,2.21h0A2.2,2.2,0,0,1,149.89,126.94Z"/>
          <path class="cls-2" d="M134.46,131.6a1.84,1.84,0,1,1-1.84-1.84A1.84,1.84,0,0,1,134.46,131.6Z"/>
          <path class="cls-6" d="M140.75,131.6a1.84,1.84,0,1,1-1.84-1.84A1.84,1.84,0,0,1,140.75,131.6Z"/>
          <path class="cls-2" d="M146.83,131.6a1.84,1.84,0,1,1-1.84-1.84A1.84,1.84,0,0,1,146.83,131.6Z"/>
          <path class="cls-6" d="M152.91,131.6a1.84,1.84,0,1,1-1.83-1.84A1.83,1.83,0,0,1,152.91,131.6Z"/>
        </g>
        <rect class="cls-5" x="164.81" y="121.09" width="13.5" height="13.5" rx="1.66" ry="1.66"/>
        <path class="cls-1" d="M177.55,141h-12a1.88,1.88,0,0,1-1.88-1.88h0a1.88,1.88,0,0,1,1.88-1.88h12a1.88,1.88,0,0,1,1.88,1.88h0A1.88,1.88,0,0,1,177.55,141Z"/>
        <path class="cls-3" d="M125.46,149.79s.32,1.16,4,1.76,49.16.5,51.85,0a7.76,7.76,0,0,0,4.13-2.11Z"/>
      </g>
    </g>
    <g>
      <path class="cls-4" d="M267.82,173.9c-2.41-5.64-16.66-29.45-21-36.44s-17-20.45-17-20.45l-12.1-16a41.69,41.69,0,0,0-9.55-9.15h0l-8.5,27.8,3.11,23.61,14.66,7.84,9,14.27,17.79,27.64a17.12,17.12,0,0,0,3.36,1.78l21.66-13.4S270.11,179.29,267.82,173.9Z"/>
      <path class="cls-1" d="M234.54,131.45a3.65,3.65,0,0,1-.24,1,8.58,8.58,0,0,1-.4,1.17,13.64,13.64,0,0,1-.65,1.5,27.4,27.4,0,0,1-2.15,3.69,38.89,38.89,0,0,1-3.28,4,47.76,47.76,0,0,1-7.12,6.21c-1,.7-1.81,1.23-2.39,1.57a4.43,4.43,0,0,1-.93.48c0-.07,1.2-.89,3.1-2.35a56.7,56.7,0,0,0,7-6.27,43.82,43.82,0,0,0,3.27-4,30.25,30.25,0,0,0,2.21-3.57C234,132.86,234.44,131.42,234.54,131.45Z"/>
      <path class="cls-1" d="M214.11,125.41c.08,0-.39,1.1-1,2.9s-1.31,4.3-2.06,7.1a73.32,73.32,0,0,1-2.22,7.08,19.31,19.31,0,0,1-.91,2.07c-.25.47-.4.73-.43.71s.4-1.11,1-2.9,1.31-4.31,2.07-7.1a71.2,71.2,0,0,1,2.21-7.09c.35-.89.67-1.59.91-2.06S214.08,125.39,214.11,125.41Z"/>
      <path class="cls-1" d="M209.1,96.84a.73.73,0,0,1,0,.24c0,.19,0,.42,0,.71-.06.66-.15,1.56-.25,2.69s-.17,2.62-.28,4.28-.16,3.57-.26,5.67c-.31,8.4-.48,20-.5,32.86s.08,24.47.17,32.89c0,4.17.08,7.56.1,10,0,1.14,0,2.05,0,2.71,0,.29,0,.52,0,.71a1.1,1.1,0,0,1,0,.24.92.92,0,0,1,0-.24c0-.19,0-.42,0-.71,0-.66-.06-1.56-.11-2.7-.06-2.4-.15-5.79-.27-10-.18-8.41-.33-20-.32-32.89s.25-24.47.65-32.88c.13-2.09.24-4,.34-5.67s.26-3.09.37-4.28.26-2,.34-2.69c.05-.28.08-.51.11-.69A1.17,1.17,0,0,1,209.1,96.84Z"/>
      <path class="cls-2" d="M257,178.22c-.63.21-11.21,4.61-12.76,14.83a18.35,18.35,0,0,0,3.84,2l21.18-13.59a7.48,7.48,0,0,0-.1-3.62S267.68,174.78,257,178.22Z"/>
      <path class="cls-1" d="M247.67,196.13s1.94,21.55,2.27,23.69,1.44,5.35,4.24,5.49c3.14.14,4.05-2.6,3.59-7.56s-.5-8.14.43-7.5,4.67,5.21,4.34,7.72-3.94,7.76-.44,9.57,5.78,2.53,10.63-.2a18,18,0,0,0,6.83-6.45s4-8.35,3.31-11.69c-.27-1.26-8.36-17.44-8.36-17.44l-5.64-9.56s-2.49-4.87-12.2.37C246.41,188.1,247.42,193.53,247.67,196.13Z"/>
      <path class="cls-2" d="M211.74,148.13a237.38,237.38,0,0,0,19.15-29.91l3.15,3.46a129.67,129.67,0,0,1-19.14,28.14Z"/>
      <path class="cls-1" d="M264.21,167a7.88,7.88,0,0,1-1,.07,16.71,16.71,0,0,0-2.77.51,59.49,59.49,0,0,0-9,3.35l-.19.09-.13-.17c-.38-.52-.77-1.07-1.18-1.62l-.92-1.28-.14-.18.16-.16a13.29,13.29,0,0,1,4.75-2.86,24.29,24.29,0,0,1,4.31-1.11,27.08,27.08,0,0,1,2.94-.34,4.1,4.1,0,0,1,1.08,0,6.15,6.15,0,0,1-1.06.17c-.69.1-1.68.24-2.9.49a26.29,26.29,0,0,0-4.21,1.21,13.28,13.28,0,0,0-4.54,2.79l0-.34c.3.41.62.84.93,1.28l1.18,1.63-.32-.09a49.46,49.46,0,0,1,9.09-3.21,12.69,12.69,0,0,1,2.84-.37,3.77,3.77,0,0,1,.78.06C264.13,166.92,264.22,166.94,264.21,167Z"/>
      <path class="cls-1" d="M268.42,175.37a43.36,43.36,0,0,0-4.91-.37,20.62,20.62,0,0,0-5.25.77A23.49,23.49,0,0,0,244.34,187a45.46,45.46,0,0,0-2,4.5,5.68,5.68,0,0,1,.3-1.3,19.85,19.85,0,0,1,1.39-3.37,22.84,22.84,0,0,1,14.11-11.51,19.5,19.5,0,0,1,9-.29A5.9,5.9,0,0,1,268.42,175.37Z"/>
      <path class="cls-5" d="M269.55,208a3.61,3.61,0,0,1,.5.75,15.2,15.2,0,0,1,1.06,2.22,14.59,14.59,0,0,1,.9,3.54,11,11,0,0,1-.36,4.49,14.14,14.14,0,0,1-2,4,31.26,31.26,0,0,1-2.27,2.84c-.69.77-1.29,1.36-1.71,1.75s-.68.59-.71.56.84-1,2.14-2.55c.65-.79,1.4-1.76,2.16-2.87a15.16,15.16,0,0,0,2-3.88,12.8,12.8,0,0,0-.4-7.75C270.1,209.15,269.46,208,269.55,208Z"/>
      <path class="cls-5" d="M278.37,209s.15.24.34.69a11.61,11.61,0,0,1,.57,2,15.87,15.87,0,0,1,.3,3.07,16.54,16.54,0,0,1-1.76,7.31,14.45,14.45,0,0,1-1.66,2.6,11.12,11.12,0,0,1-1.41,1.52c-.37.33-.59.49-.61.46s.73-.8,1.73-2.2a17.94,17.94,0,0,0,1.52-2.59,19.75,19.75,0,0,0,1.23-3.46,20.7,20.7,0,0,0,.48-3.65,16.94,16.94,0,0,0-.19-3C278.66,210.08,278.28,209.07,278.37,209Z"/>
      <path class="cls-5" d="M270.12,203.86c.12-.07.52.54.39,1.38s-.68,1.3-.77,1.2.16-.6.26-1.28S270,203.92,270.12,203.86Z"/>
      <path class="cls-5" d="M278.28,205c.1-.09.52.3.64.95s-.14,1.16-.27,1.12-.14-.5-.24-1S278.16,205.11,278.28,205Z"/>
    </g>
    <g>
      <g>
        <path class="cls-4" d="M122.55,373.23l15.87,37.33L131,439a11.44,11.44,0,0,0,9.35,12.83,5.74,5.74,0,0,0,1.49.14h0c1.49-.13,5.42-2.72,6.22-3.9,9-13.18,21.54-30.37,19.73-36.38-1-3.42-9.14-44.28-9.14-44.28Z"/>
        <path class="cls-1" d="M150,393.26a2.67,2.67,0,0,1,.32.55c.19.36.46.9.79,1.6.65,1.4,1.59,3.44,2.51,6a29.32,29.32,0,0,1,1.82,9.49,19.67,19.67,0,0,1-.85,5.68,47.43,47.43,0,0,1-2.32,5.73c-1.88,3.77-2.95,7.62-4.6,10.94a14.88,14.88,0,0,1-6.82,7.19,9.47,9.47,0,0,1-6.9.4,6.73,6.73,0,0,1-1.67-.87c-.33-.26-.49-.42-.47-.43a10.62,10.62,0,0,0,2.23,1.06,9.36,9.36,0,0,0,6.59-.57,14.54,14.54,0,0,0,6.45-7c1.59-3.24,2.66-7.15,4.55-11a46.15,46.15,0,0,0,2.3-5.64,18.91,18.91,0,0,0,.86-5.51,29.68,29.68,0,0,0-1.64-9.35c-.85-2.6-1.72-4.66-2.3-6.09A16,16,0,0,1,150,393.26Z"/>
        <path class="cls-1" d="M150.75,411.52c-.07.18-2.79-.59-6.25-.89s-6.29-.06-6.32-.25,2.83-.73,6.39-.4S150.82,411.37,150.75,411.52Z"/>
        <path class="cls-1" d="M146.43,420.07c-.1.17-2.29-.87-5.2-1.53s-5.37-.72-5.37-.91,2.52-.43,5.54.28S146.53,419.93,146.43,420.07Z"/>
        <path class="cls-1" d="M145.09,429.4c-.13.16-2.09-1.23-4.85-2.34s-5.17-1.55-5.14-1.74,2.57,0,5.42,1.14S145.22,429.29,145.09,429.4Z"/>
        <path class="cls-1" d="M132.53,446.09a11.37,11.37,0,0,0,2,.85,9.53,9.53,0,0,0,5.84-.32,16.56,16.56,0,0,0,6.75-5.21c2.08-2.48,4.23-5.33,6.34-8.38A121.72,121.72,0,0,0,163,416.62c1.06-2.18,1.83-4,2.38-5.21a13.67,13.67,0,0,1,.89-1.91,10.82,10.82,0,0,1-.64,2c-.47,1.26-1.18,3.09-2.18,5.3a105.82,105.82,0,0,1-9.35,16.58,104.2,104.2,0,0,1-6.43,8.41,16.79,16.79,0,0,1-7.08,5.26,9.53,9.53,0,0,1-6.09.13,6.26,6.26,0,0,1-1.49-.72C132.66,446.24,132.52,446.11,132.53,446.09Z"/>
        <path class="cls-1" d="M164.15,413.12a18.15,18.15,0,0,1-.67-3.07c-.36-1.9-.9-4.51-1.65-7.36s-1.58-5.4-2.21-7.23a17.39,17.39,0,0,1-.94-3,12.16,12.16,0,0,1,1.41,2.86A60.05,60.05,0,0,1,164,410,11.88,11.88,0,0,1,164.15,413.12Z"/>
      </g>
      <g>
        <path class="cls-4" d="M239.77,354.6l-8.53,39.54L244.08,421a11.19,11.19,0,0,1-6.78,14.24,5.55,5.55,0,0,1-1.45.39h0c-1.49.12-5.88-1.79-6.9-2.82-11.41-11.53-27.12-26.43-26.48-32.67.37-3.56.53-45.29.53-45.29Z"/>
        <path class="cls-1" d="M216.5,379a2.56,2.56,0,0,1-.08.61c-.09.47-.2,1.05-.34,1.74-.29,1.51-.76,3.69-1.1,6.4a29.83,29.83,0,0,0,.17,9.52,19.82,19.82,0,0,0,1.91,5.3,49.12,49.12,0,0,0,3.37,5.19c2.59,3.44,4.4,7.12,6.59,10.07a15.2,15.2,0,0,0,7.73,5.87,9.44,9.44,0,0,0,6.62-.53,10.44,10.44,0,0,0,2-1.43,2.48,2.48,0,0,1-.39.51,6.24,6.24,0,0,1-1.48,1.13,9.48,9.48,0,0,1-6.9.76,15.5,15.5,0,0,1-8.12-6c-2.27-3-4.06-6.63-6.65-10a47.82,47.82,0,0,1-3.39-5.27,19.91,19.91,0,0,1-1.93-5.47,29.12,29.12,0,0,1,0-9.69,62.39,62.39,0,0,1,1.33-6.39c.19-.75.35-1.33.46-1.72S216.47,379,216.5,379Z"/>
        <path class="cls-1" d="M219.24,397.15c-.09-.14,2.36-1.65,5.82-2.55s6.39-.84,6.39-.68-2.84.41-6.2,1.3S219.34,397.32,219.24,397.15Z"/>
        <path class="cls-1" d="M225.15,404.88c-.12-.12,1.71-1.79,4.56-3s5.41-1.36,5.42-1.19-2.39.63-5.13,1.79S225.28,405,225.15,404.88Z"/>
        <path class="cls-1" d="M228.27,413.88c-.15-.09,1.35-2,3.95-3.67s5.1-2.19,5.14-2-2.25,1-4.75,2.57S228.43,414,228.27,413.88Z"/>
        <path class="cls-1" d="M243.89,428.29s-.1.16-.36.43a6,6,0,0,1-1.32,1,9.59,9.59,0,0,1-6.05.89,17.37,17.37,0,0,1-8-4c-2.58-2.1-5.27-4.55-8-7.24a110,110,0,0,1-12.43-14.82c-1.41-2-2.46-3.71-3.17-4.88a12.34,12.34,0,0,1-1-1.87,12.87,12.87,0,0,1,1.25,1.74c.78,1.13,1.89,2.77,3.35,4.75a127.07,127.07,0,0,0,12.53,14.64c2.68,2.67,5.35,5.12,7.88,7.23a17.28,17.28,0,0,0,7.67,4,9.63,9.63,0,0,0,5.83-.66A12.5,12.5,0,0,0,243.89,428.29Z"/>
        <path class="cls-1" d="M206.3,401a11.89,11.89,0,0,1-.42-3.13,59,59,0,0,1,1-15.15,12.2,12.2,0,0,1,.84-3.06,17.84,17.84,0,0,1-.35,3.13c-.27,1.92-.59,4.57-.79,7.52s-.23,5.61-.23,7.55A17,17,0,0,1,206.3,401Z"/>
      </g>
      <g>
        <path class="cls-5" d="M219.88,220.76s7.63-.71,10.4,2.59,13.45,20,11.88,21.51-4.63,5.3-4.63,5.3Z"/>
        <path class="cls-4" d="M160.65,350c.08-.63-6.23-24.25-6.23-24.25L153.84,297l1.57-18.87s5.11-2.2,1-7.8l2.22-9.81-50.24-61.89s-2.57,16.62-3.83,35.86c-.3,4.5-5.61,27.34-4.11,42.07S109,318.21,109.3,323s8.67,33.64,12.89,43.43c5,11.59,12.85,35.36,12.85,35.36l31.68-7.48S160.56,350.64,160.65,350Z"/>
        <path class="cls-4" d="M221.5,222.24c1.3.58,26,39.57,28.8,49.95s-.42,36.34-1.28,41.16-13.54,65.44-14,67.1-19.73,8.9-33.1.52l-1.69-23S198,333,198.42,326l.46-7,.23-24.37L193.5,280.2c-1.67-1.63-2.35-3.34-2-5.15L188,265.92,175.57,257s-1.73-11.32,8.76-26.39,30.31-21,30.31-21Z"/>
        <path class="cls-1" d="M104.74,301.3a6.51,6.51,0,0,1,1.75-.88,36,36,0,0,1,5.17-1.56,70.77,70.77,0,0,1,17.82-1.41c1.75.1,3.45.14,5.1.34s3.22.45,4.71.75a58.12,58.12,0,0,1,7.69,2.24,53.3,53.3,0,0,1,5,2.09,9.45,9.45,0,0,1,1.71.95,15,15,0,0,1-1.83-.72c-1.16-.49-2.86-1.17-5-1.89a64.8,64.8,0,0,0-7.66-2.08,58.17,58.17,0,0,0-9.69-1,77.06,77.06,0,0,0-17.68,1.21,42.64,42.64,0,0,0-5.19,1.35C105.39,301.06,104.76,301.34,104.74,301.3Z"/>
        <path class="cls-2" d="M106.08,307.31a66,66,0,0,1,25.35-3.55,95,95,0,0,1,22.63,4.31l.08,3.75s-15.37-3.16-22.14-3.52c-8.43-.44-25.06,2.93-25.06,2.93Z"/>
        <path class="cls-1" d="M191.21,275.08a13.46,13.46,0,0,1,1.12-1.83,20.07,20.07,0,0,1,1.48-2c.62-.77,1.28-1.69,2.15-2.59a38.7,38.7,0,0,1,2.86-2.94c1-1.05,2.29-2,3.57-3.11a60.86,60.86,0,0,1,9.23-5.9,62.25,62.25,0,0,1,10.32-4.05c1.66-.43,3.22-.88,4.73-1.13s2.91-.5,4.2-.65,2.47-.22,3.5-.29a25,25,0,0,1,2.65-.06,14.33,14.33,0,0,1,2.25.11,16.47,16.47,0,0,1-2.25.14c-.72,0-1.6,0-2.62.17s-2.19.16-3.46.38-2.67.38-4.14.73-3,.73-4.67,1.17A65,65,0,0,0,212,257.24,63.7,63.7,0,0,0,202.8,263c-1.28,1.05-2.53,2-3.57,3s-2,2-2.9,2.86-1.56,1.76-2.21,2.5a24.75,24.75,0,0,0-1.56,2A14,14,0,0,1,191.21,275.08Z"/>
        <path class="cls-1" d="M193.86,280.47a12.75,12.75,0,0,1,1.12-1.83,20.07,20.07,0,0,1,1.48-2c.62-.77,1.28-1.69,2.15-2.59a38.7,38.7,0,0,1,2.86-2.94c1-1.05,2.29-2,3.57-3.11a60.86,60.86,0,0,1,9.23-5.9A62.25,62.25,0,0,1,224.59,258c1.66-.44,3.22-.88,4.74-1.13s2.9-.5,4.19-.66,2.47-.22,3.5-.29a24.66,24.66,0,0,1,2.65-.05,14.33,14.33,0,0,1,2.25.11,16.27,16.27,0,0,1-2.25.14c-.72,0-1.6.05-2.62.17s-2.19.15-3.46.38-2.67.38-4.14.73-3,.73-4.67,1.17a65.44,65.44,0,0,0-10.18,4.05,62.84,62.84,0,0,0-9.15,5.79c-1.28,1.05-2.52,2-3.57,3a39.5,39.5,0,0,0-2.9,2.86c-.88.87-1.56,1.76-2.21,2.5a24.8,24.8,0,0,0-1.56,2A13.71,13.71,0,0,1,193.86,280.47Z"/>
        <polygon class="cls-4" points="210.4 196.82 172.02 192 108.41 198.64 109.12 223.69 107.69 225.06 159 261.8 164.29 257.38 175.57 257.01 215.38 211.49 210.4 196.82"/>
        <path class="cls-1" d="M217.15,215.19a21.79,21.79,0,0,1-2.38.56,53.2,53.2,0,0,0-6.35,1.86,49.26,49.26,0,0,0-18,11.28,45,45,0,0,0-10.83,17.56,45.59,45.59,0,0,0-1.54,6,19.82,19.82,0,0,1-.43,2.25s0-.2,0-.59.05-1,.16-1.69a37.27,37.27,0,0,1,1.34-6.13,43.36,43.36,0,0,1,10.79-17.87,47.85,47.85,0,0,1,18.38-11.27,44.28,44.28,0,0,1,6.47-1.67c.77-.16,1.39-.22,1.8-.27A2.77,2.77,0,0,1,217.15,215.19Z"/>
        <path class="cls-1" d="M161.93,259.3a2.24,2.24,0,0,1-.39-.48l-1-1.44c-.42-.63-.94-1.4-1.62-2.25s-1.37-1.86-2.28-2.88-1.86-2.18-3-3.32-2.38-2.34-3.72-3.58a74.64,74.64,0,0,0-9.56-7.09,77.94,77.94,0,0,0-10.77-5.4c-1.75-.65-3.4-1.31-5-1.77s-3.08-.92-4.46-1.26-2.64-.58-3.74-.82-2.07-.39-2.86-.49l-1.81-.29a1.85,1.85,0,0,1-.63-.15,2.82,2.82,0,0,1,.64,0l1.84.17a24.06,24.06,0,0,1,2.89.39c1.12.2,2.41.37,3.79.73s2.93.67,4.52,1.19,3.3,1.09,5.07,1.73a73,73,0,0,1,10.9,5.41,71.41,71.41,0,0,1,9.63,7.2c1.33,1.26,2.62,2.44,3.7,3.65s2.1,2.33,3,3.4,1.57,2.08,2.21,3a23.29,23.29,0,0,1,1.53,2.32c.35.6.64,1.1.89,1.51S162,259.29,161.93,259.3Z"/>
        <path class="cls-1" d="M100.75,264.83a14.74,14.74,0,0,1,2.06-1,22.74,22.74,0,0,1,2.5-1c1-.34,2.12-.8,3.41-1.13l2-.56c.71-.19,1.46-.32,2.23-.49,1.53-.36,3.21-.56,5-.8a58,58,0,0,1,22.86,1.92c1.68.54,3.3,1,4.73,1.62.73.3,1.44.55,2.1.85l1.88.89c1.21.54,2.22,1.17,3.13,1.68a22.13,22.13,0,0,1,2.27,1.42,15.89,15.89,0,0,1,1.83,1.33,13.91,13.91,0,0,1-2-1.12,26.57,26.57,0,0,0-2.32-1.32c-.92-.47-1.94-1.07-3.16-1.58l-1.88-.85c-.65-.29-1.36-.52-2.08-.8-1.44-.59-3-1-4.7-1.55a60.37,60.37,0,0,0-22.6-1.9c-1.74.23-3.4.4-4.92.74-.77.16-1.51.27-2.21.44l-2,.52c-1.3.3-2.41.72-3.42,1a25.76,25.76,0,0,0-2.53.91A14.88,14.88,0,0,1,100.75,264.83Z"/>
        <path class="cls-1" d="M100.17,274.34a15.15,15.15,0,0,1,2-.92l1.11-.45,1.36-.46c1-.31,2.09-.7,3.36-1l2-.49c.69-.15,1.42-.27,2.17-.41,1.5-.31,3.14-.45,4.85-.67a72.13,72.13,0,0,1,11.22,0,74.11,74.11,0,0,1,11.05,1.81c1.65.44,3.24.84,4.68,1.34s2.78.95,4,1.43,2.26,1,3.19,1.38,1.72.81,2.35,1.16a14.54,14.54,0,0,1,1.92,1.11,13.68,13.68,0,0,1-2-.89c-.64-.31-1.44-.68-2.38-1.05s-2-.87-3.21-1.28-2.53-.93-4-1.35-3-.85-4.65-1.28a78.78,78.78,0,0,0-10.95-1.73,74.74,74.74,0,0,0-11.1,0c-1.69.2-3.32.31-4.8.6-.75.13-1.48.23-2.17.37l-2,.45c-1.26.25-2.37.61-3.35.89l-1.37.4-1.12.4A13.05,13.05,0,0,1,100.17,274.34Z"/>
        <path class="cls-1" d="M103.4,288.12a27.68,27.68,0,0,1,3.45-2.44c2.18-1.45,5.22-3.4,8.61-5.53l6.8-4.21-.13.24c-.07-1.86-.12-3.4-.13-4.47a6.63,6.63,0,0,1,.07-1.7,6.6,6.6,0,0,1,.26,1.68c.11,1.07.24,2.61.38,4.46v.15l-.14.09-6.73,4.3c-3.39,2.13-6.47,4-8.72,5.37A27.34,27.34,0,0,1,103.4,288.12Z"/>
        <path class="cls-1" d="M115.63,349a8.88,8.88,0,0,1,1.18-1.28,15.62,15.62,0,0,1,1.51-1.4,27.27,27.27,0,0,1,2.13-1.71,30.22,30.22,0,0,1,2.77-1.87c1-.66,2.17-1.24,3.38-1.87a47.71,47.71,0,0,1,8.34-3.12,49.65,49.65,0,0,1,8.87-1.39c1.38,0,2.69-.11,3.92,0s2.37.13,3.41.24a27.4,27.4,0,0,1,2.78.43,19.86,19.86,0,0,1,2.07.45,9.48,9.48,0,0,1,1.72.53c0,.14-2.51-.57-6.62-1-1-.09-2.16-.18-3.37-.17s-2.51,0-3.87.1a51.09,51.09,0,0,0-8.72,1.42,50.42,50.42,0,0,0-8.24,3c-1.19.61-2.35,1.16-3.35,1.8a33,33,0,0,0-2.78,1.77C117.45,347.29,115.74,349.1,115.63,349Z"/>
        <path class="cls-1" d="M118.25,355.84a7.48,7.48,0,0,1,1.15-1.2,18.2,18.2,0,0,1,1.47-1.3c.59-.48,1.25-1.06,2-1.6a44.16,44.16,0,0,1,5.84-3.59,50.65,50.65,0,0,1,7.86-3.18,51.71,51.71,0,0,1,8.36-1.76,46.19,46.19,0,0,1,7-.32c1,0,1.89.1,2.68.16a17.37,17.37,0,0,1,2,.24,8.9,8.9,0,0,1,1.69.33c0,.13-2.45-.26-6.39-.27a51.16,51.16,0,0,0-6.89.45,50.59,50.59,0,0,0-16,4.87,49.68,49.68,0,0,0-5.85,3.43C120.05,354.29,118.34,355.94,118.25,355.84Z"/>
        <path class="cls-1" d="M247.92,316.8a10.44,10.44,0,0,1-1.86-.52c-.59-.19-1.32-.41-2.17-.63s-1.81-.53-2.9-.75a71,71,0,0,0-7.66-1.39,77,77,0,0,0-9.54-.52,76,76,0,0,0-9.52.79,70.5,70.5,0,0,0-7.62,1.6c-1.08.26-2,.58-2.87.83s-1.57.49-2.15.7a9.89,9.89,0,0,1-1.85.56,12.22,12.22,0,0,1,1.75-.8c.57-.24,1.28-.52,2.12-.8s1.77-.64,2.85-.93a64.07,64.07,0,0,1,7.66-1.75,70.11,70.11,0,0,1,9.62-.85,72.35,72.35,0,0,1,9.63.58,62.1,62.1,0,0,1,7.71,1.53c1.09.26,2,.59,2.89.85s1.56.52,2.14.75A10.26,10.26,0,0,1,247.92,316.8Z"/>
        <path class="cls-1" d="M246.59,323.41a10.19,10.19,0,0,1-1.9-.37c-1.2-.29-3-.66-5.14-1s-4.8-.73-7.73-1a89.14,89.14,0,0,0-9.53-.2,90.11,90.11,0,0,0-9.49.9c-2.9.47-5.48,1-7.62,1.55s-3.87,1-5,1.41a12,12,0,0,1-1.86.52,9.41,9.41,0,0,1,1.76-.75,52.52,52.52,0,0,1,5-1.62,71.74,71.74,0,0,1,7.65-1.7,83.68,83.68,0,0,1,9.57-1,82.82,82.82,0,0,1,9.62.26,73.94,73.94,0,0,1,7.77,1.12c2.18.45,3.93.88,5.12,1.25A10.37,10.37,0,0,1,246.59,323.41Z"/>
        <path class="cls-2" d="M251.31,279.94c-8-6-19.67-7.07-29.28-3.81S204.59,286.21,198.72,294l-1.83-5.12c5.86-7.8,14.58-15.07,24.19-18.32s21.72-2.22,29.68,3.76A28.59,28.59,0,0,1,251.31,279.94Z"/>
        <g class="cls-3">
          <path d="M102.31,273.49c.68,1.49,3.72,2.38,5.78,1.95,2.61-.54,6.13-2.76,8.21-3.1,12-1.93,19.88,4.92,34.32,5.27.29,0,.58.14.83,0a.67.67,0,0,0,.19-.95,2.15,2.15,0,0,0-.89-.67c-14.59-7.42-32.49-7.66-48.44-2.51"/>
        </g>
        <g class="cls-3">
          <path d="M194.81,280.08c7.29-5.1,12-13.24,20.2-17,7-3.22,15.71-2.74,22.2-6.83-17.08.63-33.57,9.43-42.79,22.83"/>
        </g>
        <path class="cls-1" d="M200.17,384.42c11.76,6,26.51,5.32,37.85-1.15a3,3,0,0,0,.73-4.36,3.6,3.6,0,0,0-4.68-.68c-9.41,5.38-21.61,5.36-31.22.48a3.46,3.46,0,0,0-4.4,1.61c-.78,1.65.13,3.29,1.72,4.1Z"/>
        <path class="cls-1" d="M135.52,405.24q15.69-4.32,31.73-7.31a3.25,3.25,0,0,0,2.93-3.46,3.32,3.32,0,0,0-3.71-2.73q-16.87,3.15-33.39,7.7a3.06,3.06,0,0,0-1.9,4,3.5,3.5,0,0,0,4.34,1.77Z"/>
        <path class="cls-4" d="M244.28,329.61s6.94,8.23,6.25,11.88-9,29.7-9,29.7l-5.21,3.11Z"/>
        <path class="cls-1" d="M236.32,373.81c-.19,0,1.89-10.67,4.64-23.75s5.14-23.67,5.33-23.63-1.89,10.67-4.65,23.75S236.51,373.84,236.32,373.81Z"/>
        <g>
          <path class="cls-4" d="M117.69,368.75a3.77,3.77,0,0,1,1.33-4.36c3.83-2.9,11.32-7.93,13.29-6.16s6.61,19.79,8.37,27.06a3.8,3.8,0,0,1-2.29,4.36l-7.47,3.28a3.53,3.53,0,0,1-4.72-1.83Z"/>
          <path class="cls-1" d="M117.69,368.75a4,4,0,0,1,.4.83l1,2.44c.87,2.19,2.07,5.25,3.54,9l2.42,6.23,1.34,3.47a3.12,3.12,0,0,0,2.73,2.2,3.48,3.48,0,0,0,1.93-.38l2-.89,4.16-1.84a8.06,8.06,0,0,0,2-1,3.44,3.44,0,0,0,1.12-1.73,3.56,3.56,0,0,0-.06-2.09c-.18-.74-.36-1.49-.55-2.24-1.49-6-3-11.73-4.56-16.87a36.59,36.59,0,0,0-2.72-7.05c-.53-1-2-.66-3-.34a19.85,19.85,0,0,0-3,1.35,56.6,56.6,0,0,0-4.87,3l-1.92,1.34a5,5,0,0,0-1.39,1.29,3.69,3.69,0,0,0-.66,2.42c.06.58.18.88.14.89a2.52,2.52,0,0,1-.28-.88,3.7,3.7,0,0,1,.57-2.57,5.33,5.33,0,0,1,1.41-1.39c.58-.44,1.21-.9,1.89-1.39a50.6,50.6,0,0,1,4.86-3.1,20.05,20.05,0,0,1,3.09-1.43,6.4,6.4,0,0,1,1.85-.39,2.42,2.42,0,0,1,1,.19,2,2,0,0,1,.77.71,36.09,36.09,0,0,1,2.86,7.18c1.62,5.15,3.12,10.87,4.62,16.89.19.76.37,1.5.55,2.25a4.17,4.17,0,0,1,.05,2.4,4.11,4.11,0,0,1-1.33,2,4.52,4.52,0,0,1-1.06.67l-1.07.47-4.17,1.82-2,.88a4.21,4.21,0,0,1-2.28.43,3.77,3.77,0,0,1-3.24-2.61l-1.31-3.48c-.83-2.24-1.61-4.34-2.33-6.25-1.39-3.78-2.52-6.86-3.33-9.08-.36-1-.65-1.85-.88-2.47A5,5,0,0,1,117.69,368.75Z"/>
        </g>
        <path class="cls-1" d="M249.33,280.36a17.85,17.85,0,0,1-2.14-.41,55.06,55.06,0,0,0-5.85-.89A52,52,0,0,0,222,280.8a49.56,49.56,0,0,0-17,8.76,50.1,50.1,0,0,0-4.28,3.82,16.86,16.86,0,0,1-1.51,1.47s.08-.17.3-.45.55-.69,1-1.19a39.54,39.54,0,0,1,4.16-4,47.39,47.39,0,0,1,17.08-9,49.6,49.6,0,0,1,19.56-1.57,43.09,43.09,0,0,1,5.87,1.1c.68.16,1.19.34,1.55.45A1.74,1.74,0,0,1,249.33,280.36Z"/>
        <path class="cls-1" d="M250.88,287.42a14,14,0,0,1-2.08-.25c-.66-.11-1.47-.23-2.42-.33s-2-.27-3.22-.34a81.69,81.69,0,0,0-8.42-.31,85.47,85.47,0,0,0-10.27.8,87.77,87.77,0,0,0-10.05,2.09,82.74,82.74,0,0,0-7.94,2.64c-1.12.41-2.09.86-3,1.22s-1.61.7-2.2,1a13,13,0,0,1-1.91.82,12,12,0,0,1,1.78-1c.58-.32,1.3-.7,2.16-1.09s1.82-.89,2.94-1.32a70.76,70.76,0,0,1,7.94-2.79,75,75,0,0,1,20.51-2.92,71.94,71.94,0,0,1,8.47.45c1.21.11,2.28.3,3.23.44s1.75.29,2.41.44A13.15,13.15,0,0,1,250.88,287.42Z"/>
        <path class="cls-1" d="M107.76,316.45a12.26,12.26,0,0,1,1.62-.92,19.77,19.77,0,0,1,2-.95c.79-.34,1.67-.76,2.7-1.11a50.4,50.4,0,0,1,7.34-2.11,58,58,0,0,1,9.33-1.11,59.38,59.38,0,0,1,9.4.55,52.83,52.83,0,0,1,7.47,1.68c1.05.29,2,.66,2.77.95a20.22,20.22,0,0,1,2,.83,10.26,10.26,0,0,1,1.67.83c-.06.12-2.48-1-6.63-2.17a57.79,57.79,0,0,0-7.42-1.53,63.24,63.24,0,0,0-9.27-.49,62.22,62.22,0,0,0-9.23,1,55.49,55.49,0,0,0-7.3,2C110.17,315.31,107.83,316.57,107.76,316.45Z"/>
        <path class="cls-1" d="M154.48,316.85a8.66,8.66,0,0,1-1.81.06l-4.89,0c-4.14,0-9.85.2-16.12.73s-11.93,1.33-16,2l-4.82.82a10.81,10.81,0,0,1-1.79.24,9.6,9.6,0,0,1,1.73-.49c1.12-.28,2.75-.63,4.78-1a158.11,158.11,0,0,1,32.22-2.73c2.07,0,3.75.11,4.9.19A10.28,10.28,0,0,1,154.48,316.85Z"/>
      </g>
      <g>
        <path class="cls-2" d="M108.51,189.85s27.74,7.22,58.15,6,42.3-7.14,42.3-7.14l1.8,10.23s-36.94,14.33-103.51.77C107.25,199.68,106.7,192.05,108.51,189.85Z"/>
        <polygon class="cls-4" points="120.21 192.1 119.47 203 126.52 203.96 127.67 191.91 120.21 192.1"/>
        <polygon class="cls-4" points="191.07 192.63 193.81 203.25 200.84 202.24 198.14 190.4 191.07 192.63"/>
        <polygon class="cls-1" points="146.34 205.87 136.85 204.85 138.11 194.75 147.6 195.77 146.34 205.87"/>
      </g>
    </g>
    <g class="cls-3">
      <path d="M141.92,179.63c-9.77,5.39-23.3,11.05-33.06,16.44l-1,6.45c8.22-2.75,18.28-6.36,25.42-11.27,2-1.37,5.86-4,7.33-6S142.7,181.94,141.92,179.63Z"/>
    </g>
    <g>
      <path class="cls-4" d="M88.4,167.94c-7.2,3.52-15.1,9.08-14.16,18.19.86,8.31,9,11.77,16.38,12.42,18.78,1.65,37.4-7.73,52.88-17.27,5-3.08.41-11-4.62-7.9C127.36,180.48,115,187,101.44,189c-4.64.68-12.47,1.82-16.57-1.38C78.93,183,90.41,177.54,93.62,176l-.12-9.8a35.11,35.11,0,0,0-5.1,1.76Z"/>
      <path class="cls-1" d="M88.4,167.94a9.85,9.85,0,0,1,1.24-.58,38.39,38.39,0,0,1,3.84-1.26l.1,0v.11c0,2.45.1,5.75.17,9.8v.08l-.07,0a47.24,47.24,0,0,0-6.43,3.64,13.34,13.34,0,0,0-3,2.8,4.21,4.21,0,0,0-.83,1.94,2.85,2.85,0,0,0,.63,2,7.68,7.68,0,0,0,4,2.4,18.43,18.43,0,0,0,5,.65,64.65,64.65,0,0,0,10.85-1.18,85.09,85.09,0,0,0,23-8.36c3.87-2,7.74-4.25,11.63-6.63a5.77,5.77,0,0,1,.78-.42,2.78,2.78,0,0,1,.84-.33,4,4,0,0,1,1.81-.12,4.71,4.71,0,0,1,3,1.95,5.34,5.34,0,0,1,1,3.47,4.49,4.49,0,0,1-1.73,3.19,153.8,153.8,0,0,1-18.44,10.17,95.32,95.32,0,0,1-9.28,3.75c-1.53.57-3.1,1-4.63,1.47s-3.07.84-4.61,1.13a55.22,55.22,0,0,1-17.68,1,24.51,24.51,0,0,1-7.74-2.22,14.48,14.48,0,0,1-5.72-4.72,12,12,0,0,1-2-6.42,13.11,13.11,0,0,1,1.1-5.91,18.91,18.91,0,0,1,6.19-7.29,35.22,35.22,0,0,1,5.16-3.21c.61-.33,1.09-.55,1.41-.71l.5-.22-.47.27c-.31.17-.79.41-1.39.75a37.48,37.48,0,0,0-5.09,3.28,18.79,18.79,0,0,0-6,7.25,12.83,12.83,0,0,0-1,5.78,11.66,11.66,0,0,0,2,6.22A14,14,0,0,0,82,196.06a24.23,24.23,0,0,0,7.63,2.15,54.9,54.9,0,0,0,17.52-1.06c12.18-2.61,24.67-8.81,36.73-16.45a4,4,0,0,0,1.54-2.83,4.87,4.87,0,0,0-.92-3.13,4.2,4.2,0,0,0-2.67-1.74,3.72,3.72,0,0,0-1.59.1,2.87,2.87,0,0,0-.75.3,6.71,6.71,0,0,0-.74.4c-3.9,2.39-7.78,4.64-11.67,6.63a84.75,84.75,0,0,1-23.15,8.36,63.1,63.1,0,0,1-10.94,1.15,18.93,18.93,0,0,1-5.08-.68,8,8,0,0,1-4.13-2.55,3.19,3.19,0,0,1-.7-2.27,4.53,4.53,0,0,1,.91-2.1,13.39,13.39,0,0,1,3.13-2.87,46.39,46.39,0,0,1,6.49-3.61l-.08.12c0-4,0-7.35-.07-9.8l.11.08c-1.72.45-3,.87-3.85,1.18l-1,.38A1.46,1.46,0,0,1,88.4,167.94Z"/>
    </g>
  </g>
</svg>
